<svg width="294" height="123" viewBox="0 0 294 123" fill="none" xmlns="http://www.w3.org/2000/svg">
<rect x="1" y="12" width="292" height="96" rx="48" stroke="#D10101" stroke-width="2"/>
<rect x="1" y="26" width="292" height="96" rx="48" stroke="#D10101" stroke-width="2"/>
<rect width="294" height="98" rx="49" fill="#D10101"/>
<path d="M58.112 60.224C56.4693 60.224 54.9973 59.9573 53.696 59.424C52.3947 58.8907 51.3493 58.1013 50.56 57.056C49.792 56.0107 49.3867 54.752 49.344 53.28H55.168C55.2533 54.112 55.5413 54.752 56.032 55.2C56.5227 55.6267 57.1627 55.84 57.952 55.84C58.7627 55.84 59.4027 55.6587 59.872 55.296C60.3413 54.912 60.576 54.3893 60.576 53.728C60.576 53.1733 60.384 52.7147 60 52.352C59.6373 51.9893 59.1787 51.6907 58.624 51.456C58.0907 51.2213 57.3227 50.9547 56.32 50.656C54.8693 50.208 53.6853 49.76 52.768 49.312C51.8507 48.864 51.0613 48.2027 50.4 47.328C49.7387 46.4533 49.408 45.312 49.408 43.904C49.408 41.8133 50.1653 40.1813 51.68 39.008C53.1947 37.8133 55.168 37.216 57.6 37.216C60.0747 37.216 62.0693 37.8133 63.584 39.008C65.0987 40.1813 65.9093 41.824 66.016 43.936H60.096C60.0533 43.2107 59.7867 42.6453 59.296 42.24C58.8053 41.8133 58.176 41.6 57.408 41.6C56.7467 41.6 56.2133 41.7813 55.808 42.144C55.4027 42.4853 55.2 42.9867 55.2 43.648C55.2 44.3733 55.5413 44.9387 56.224 45.344C56.9067 45.7493 57.9733 46.1867 59.424 46.656C60.8747 47.1467 62.048 47.616 62.944 48.064C63.8613 48.512 64.6507 49.1627 65.312 50.016C65.9733 50.8693 66.304 51.968 66.304 53.312C66.304 54.592 65.9733 55.7547 65.312 56.8C64.672 57.8453 63.7333 58.6773 62.496 59.296C61.2587 59.9147 59.7973 60.224 58.112 60.224ZM83.6555 56.032H75.2715L73.9275 60H68.1995L76.3275 37.536H82.6635L90.7915 60H84.9995L83.6555 56.032ZM82.2475 51.808L79.4635 43.584L76.7115 51.808H82.2475ZM98.7373 37.536V60H93.2653V37.536H98.7373ZM116.303 48.48C117.604 48.7573 118.649 49.408 119.439 50.432C120.228 51.4347 120.623 52.5867 120.623 53.888C120.623 55.7653 119.961 57.2587 118.639 58.368C117.337 59.456 115.513 60 113.167 60H102.703V37.536H112.815C115.097 37.536 116.879 38.0587 118.159 39.104C119.46 40.1493 120.111 41.568 120.111 43.36C120.111 44.6827 119.759 45.7813 119.055 46.656C118.372 47.5307 117.455 48.1387 116.303 48.48ZM108.175 46.624H111.759C112.655 46.624 113.337 46.432 113.807 46.048C114.297 45.6427 114.543 45.056 114.543 44.288C114.543 43.52 114.297 42.9333 113.807 42.528C113.337 42.1227 112.655 41.92 111.759 41.92H108.175V46.624ZM112.207 55.584C113.124 55.584 113.828 55.3813 114.319 54.976C114.831 54.5493 115.087 53.9413 115.087 53.152C115.087 52.3627 114.82 51.744 114.287 51.296C113.775 50.848 113.06 50.624 112.143 50.624H108.175V55.584H112.207ZM137.781 56.032H129.397L128.053 60H122.325L130.453 37.536H136.789L144.917 60H139.125L137.781 56.032ZM136.373 51.808L133.589 43.584L130.837 51.808H136.373ZM179.612 37.536V60H174.14V46.528L169.116 60H164.7L159.644 46.496V60H154.172V37.536H160.635L166.94 53.088L173.18 37.536H179.612ZM197.531 56.032H189.147L187.803 60H182.075L190.203 37.536H196.539L204.667 60H198.875L197.531 56.032ZM196.123 51.808L193.339 43.584L190.587 51.808H196.123ZM212.612 37.536V60H207.14V37.536H212.612ZM224.706 60.224C223.063 60.224 221.591 59.9573 220.29 59.424C218.988 58.8907 217.943 58.1013 217.154 57.056C216.386 56.0107 215.98 54.752 215.938 53.28H221.762C221.847 54.112 222.135 54.752 222.626 55.2C223.116 55.6267 223.756 55.84 224.546 55.84C225.356 55.84 225.996 55.6587 226.466 55.296C226.935 54.912 227.17 54.3893 227.17 53.728C227.17 53.1733 226.978 52.7147 226.594 52.352C226.231 51.9893 225.772 51.6907 225.218 51.456C224.684 51.2213 223.916 50.9547 222.914 50.656C221.463 50.208 220.279 49.76 219.362 49.312C218.444 48.864 217.655 48.2027 216.994 47.328C216.332 46.4533 216.002 45.312 216.002 43.904C216.002 41.8133 216.759 40.1813 218.274 39.008C219.788 37.8133 221.762 37.216 224.194 37.216C226.668 37.216 228.663 37.8133 230.178 39.008C231.692 40.1813 232.503 41.824 232.61 43.936H226.69C226.647 43.2107 226.38 42.6453 225.89 42.24C225.399 41.8133 224.77 41.6 224.002 41.6C223.34 41.6 222.807 41.7813 222.402 42.144C221.996 42.4853 221.794 42.9867 221.794 43.648C221.794 44.3733 222.135 44.9387 222.818 45.344C223.5 45.7493 224.567 46.1867 226.018 46.656C227.468 47.1467 228.642 47.616 229.538 48.064C230.455 48.512 231.244 49.1627 231.906 50.016C232.567 50.8693 232.898 51.968 232.898 53.312C232.898 54.592 232.567 55.7547 231.906 56.8C231.266 57.8453 230.327 58.6773 229.09 59.296C227.852 59.9147 226.391 60.224 224.706 60.224Z" fill="#E1E1E1"/>
</svg>
