<svg width="1339" height="562" viewBox="0 0 1339 562" fill="none" xmlns="http://www.w3.org/2000/svg">
<g filter="url(#filter0_f_264_258)">
<path d="M96.066 376.952C96.066 382.892 94.5 388.4 91.368 393.476C88.344 398.444 83.808 402.548 77.76 405.788C71.82 408.92 64.746 410.648 56.538 410.972V424.094H46.17V410.81C34.722 409.838 25.488 406.436 18.468 400.604C11.448 394.664 7.722 386.618 7.29 376.466H36.774C37.422 382.946 40.554 387.104 46.17 388.94V363.344C37.746 361.184 30.996 359.078 25.92 357.026C20.952 354.974 16.578 351.68 12.798 347.144C9.018 342.608 7.128 336.398 7.128 328.514C7.128 318.686 10.746 310.802 17.982 304.862C25.326 298.922 34.722 295.574 46.17 294.818V281.696H56.538V294.818C67.878 295.682 76.842 298.976 83.43 304.7C90.018 310.424 93.69 318.362 94.446 328.514H64.8C64.152 322.682 61.398 318.902 56.538 317.174V342.284C65.502 344.768 72.414 346.982 77.274 348.926C82.134 350.87 86.454 354.11 90.234 358.646C94.122 363.074 96.066 369.176 96.066 376.952ZM36.45 327.218C36.45 329.918 37.26 332.186 38.88 334.022C40.608 335.858 43.038 337.478 46.17 338.882V316.364C43.146 316.904 40.77 318.092 39.042 319.928C37.314 321.656 36.45 324.086 36.45 327.218ZM56.538 389.426C59.778 388.886 62.316 387.59 64.152 385.538C66.096 383.486 67.068 380.948 67.068 377.924C67.068 375.116 66.15 372.848 64.314 371.12C62.586 369.284 59.994 367.718 56.538 366.422V389.426Z" fill="white" fill-opacity="0.4"/>
</g>
<g filter="url(#filter1_f_264_258)">
<path d="M1095.9 447.888C1095.9 452.581 1094.67 456.933 1092.19 460.944C1089.8 464.869 1086.22 468.112 1081.44 470.672C1076.75 473.147 1071.16 474.512 1064.67 474.768V485.136H1056.48V474.64C1047.43 473.872 1040.14 471.184 1034.59 466.576C1029.05 461.883 1026.1 455.525 1025.76 447.504H1049.06C1049.57 452.624 1052.04 455.909 1056.48 457.36V437.136C1049.82 435.429 1044.49 433.765 1040.48 432.144C1036.55 430.523 1033.1 427.92 1030.11 424.336C1027.13 420.752 1025.63 415.845 1025.63 409.616C1025.63 401.851 1028.49 395.621 1034.21 390.928C1040.01 386.235 1047.43 383.589 1056.48 382.992V372.624H1064.67V382.992C1073.63 383.675 1080.71 386.277 1085.92 390.8C1091.13 395.323 1094.03 401.595 1094.62 409.616H1071.2C1070.69 405.008 1068.51 402.021 1064.67 400.656V420.496C1071.75 422.459 1077.22 424.208 1081.06 425.744C1084.9 427.28 1088.31 429.84 1091.3 433.424C1094.37 436.923 1095.9 441.744 1095.9 447.888ZM1048.8 408.592C1048.8 410.725 1049.44 412.517 1050.72 413.968C1052.09 415.419 1054.01 416.699 1056.48 417.808V400.016C1054.09 400.443 1052.21 401.381 1050.85 402.832C1049.48 404.197 1048.8 406.117 1048.8 408.592ZM1064.67 457.744C1067.23 457.317 1069.24 456.293 1070.69 454.672C1072.22 453.051 1072.99 451.045 1072.99 448.656C1072.99 446.437 1072.27 444.645 1070.82 443.28C1069.45 441.829 1067.4 440.592 1064.67 439.568V457.744Z" fill="white" fill-opacity="0.4"/>
</g>
<g filter="url(#filter2_f_264_258)">
<path d="M308.904 580.888C308.904 585.581 307.667 589.933 305.192 593.944C302.803 597.869 299.219 601.112 294.44 603.672C289.747 606.147 284.157 607.512 277.672 607.768V618.136H269.48V607.64C260.435 606.872 253.139 604.184 247.592 599.576C242.045 594.883 239.101 588.525 238.76 580.504H262.056C262.568 585.624 265.043 588.909 269.48 590.36V570.136C262.824 568.429 257.491 566.765 253.48 565.144C249.555 563.523 246.099 560.92 243.112 557.336C240.125 553.752 238.632 548.845 238.632 542.616C238.632 534.851 241.491 528.621 247.208 523.928C253.011 519.235 260.435 516.589 269.48 515.992V505.624H277.672V515.992C286.632 516.675 293.715 519.277 298.92 523.8C304.125 528.323 307.027 534.595 307.624 542.616H284.2C283.688 538.008 281.512 535.021 277.672 533.656V553.496C284.755 555.459 290.216 557.208 294.056 558.744C297.896 560.28 301.309 562.84 304.296 566.424C307.368 569.923 308.904 574.744 308.904 580.888ZM261.8 541.592C261.8 543.725 262.44 545.517 263.72 546.968C265.085 548.419 267.005 549.699 269.48 550.808V533.016C267.091 533.443 265.213 534.381 263.848 535.832C262.483 537.197 261.8 539.117 261.8 541.592ZM277.672 590.744C280.232 590.317 282.237 589.293 283.688 587.672C285.224 586.051 285.992 584.045 285.992 581.656C285.992 579.437 285.267 577.645 283.816 576.28C282.451 574.829 280.403 573.592 277.672 572.568V590.744Z" fill="white" fill-opacity="0.4"/>
</g>
<path d="M1323.43 202.1C1323.43 210.35 1321.25 218 1316.9 225.05C1312.7 231.95 1306.4 237.65 1298 242.15C1289.75 246.5 1279.93 248.9 1268.53 249.35V267.575H1254.13V249.125C1238.23 247.775 1225.4 243.05 1215.65 234.95C1205.9 226.7 1200.73 215.525 1200.13 201.425H1241.08C1241.98 210.425 1246.33 216.2 1254.13 218.75V183.2C1242.43 180.2 1233.05 177.275 1226 174.425C1219.1 171.575 1213.03 167 1207.78 160.7C1202.53 154.4 1199.9 145.775 1199.9 134.825C1199.9 121.175 1204.93 110.225 1214.98 101.975C1225.18 93.725 1238.23 89.075 1254.13 88.025V69.8H1268.53V88.025C1284.28 89.225 1296.73 93.8 1305.88 101.75C1315.03 109.7 1320.13 120.725 1321.18 134.825H1280C1279.1 126.725 1275.28 121.475 1268.53 119.075V153.95C1280.98 157.4 1290.58 160.475 1297.33 163.175C1304.08 165.875 1310.08 170.375 1315.33 176.675C1320.73 182.825 1323.43 191.3 1323.43 202.1ZM1240.63 133.025C1240.63 136.775 1241.75 139.925 1244 142.475C1246.4 145.025 1249.78 147.275 1254.13 149.225V117.95C1249.93 118.7 1246.63 120.35 1244.23 122.9C1241.83 125.3 1240.63 128.675 1240.63 133.025ZM1268.53 219.425C1273.03 218.675 1276.55 216.875 1279.1 214.025C1281.8 211.175 1283.15 207.65 1283.15 203.45C1283.15 199.55 1281.88 196.4 1279.33 194C1276.93 191.45 1273.33 189.275 1268.53 187.475V219.425Z" fill="white" fill-opacity="0.4"/>
<defs>
<filter id="filter0_f_264_258" x="2.12793" y="276.696" width="98.9385" height="152.398" filterUnits="userSpaceOnUse" color-interpolation-filters="sRGB">
<feFlood flood-opacity="0" result="BackgroundImageFix"/>
<feBlend mode="normal" in="SourceGraphic" in2="BackgroundImageFix" result="shape"/>
<feGaussianBlur stdDeviation="2.5" result="effect1_foregroundBlur_264_258"/>
</filter>
<filter id="filter1_f_264_258" x="1017.63" y="364.624" width="86.2725" height="128.512" filterUnits="userSpaceOnUse" color-interpolation-filters="sRGB">
<feFlood flood-opacity="0" result="BackgroundImageFix"/>
<feBlend mode="normal" in="SourceGraphic" in2="BackgroundImageFix" result="shape"/>
<feGaussianBlur stdDeviation="4" result="effect1_foregroundBlur_264_258"/>
</filter>
<filter id="filter2_f_264_258" x="226.632" y="493.624" width="94.2725" height="136.512" filterUnits="userSpaceOnUse" color-interpolation-filters="sRGB">
<feFlood flood-opacity="0" result="BackgroundImageFix"/>
<feBlend mode="normal" in="SourceGraphic" in2="BackgroundImageFix" result="shape"/>
<feGaussianBlur stdDeviation="6" result="effect1_foregroundBlur_264_258"/>
</filter>
</defs>
</svg>
